Coordinates																																												
version=1																																												
nRows=22																																												
nColumns=45																																												
inDegrees=yes																																												
																																												
"Units are S.I. units (second, meters, Newtons, ...)"																																												
Angles are in degrees.																																												
																																												
endheader																																												
time	pelvis_tilt	pelvis_list	pelvis_rotation	pelvis_tx	pelvis_ty	pelvis_tz	hip_flexion_r	hip_adduction_r	hip_rotation_r	knee_angle_r	knee_adduction_r	knee_angle_r_beta	ankle_angle_r	subtalar_angle_r	mtp_angle_r	hip_flexion_l	hip_adduction_l	hip_rotation_l	knee_angle_l	knee_adduction_l	knee_angle_l_beta	ankle_angle_l	subtalar_angle_l	mtp_angle_l	lumbar_extension	lumbar_bending	lumbar_rotation	thoracic_extension	thoracic_bending	thoracic_rotation	arm_flex_r	arm_add_r	arm_rot_r	elbow_flex_r	pro_sup_r	wrist_flex_r	wrist_dev_r	arm_flex_l	arm_add_l	arm_rot_l	elbow_flex_l	pro_sup_l	wrist_flex_l	wrist_dev_l
19.245	-4.32138903	-5.21086556	-3.46333048	0.68915711	0.92487863	0.49122993	-10.83380725	4.00116833	-2.05296321	15.72980585	5.063	0.2745369	14.53756012	7.23656521	-14.21774579	33.4785236	-7.23771083	-9.07642613	10.00972621	5.063	0.17470268	12.97940592	0.20114198	-1.21535467	-4.71536702	7.49761219	5.63448339	0	0	0	20.95174572	-19.64580458	2.15598913	56.86577023	89.99911678	0	0	-8.71105088	-6.93755817	12.17180817	21.33262566	89.99945425	0	0
19.25578571	-4.40089203	-4.73241072	-3.54470961	0.69073155	0.92255936	0.49051472	-11.1492408	3.29037294	-2.20861213	16.90198492	5.063	0.29499529	14.33594995	7.16992787	-15.43889217	33.82358912	-6.81818585	-9.10078199	11.70699319	5.063	0.20432558	12.59640494	-1.02547842	-1.51784624	-4.37567308	6.84171283	5.67597866	0	0	0	20.64645185	-19.58526596	2.08479372	56.96624607	89.99911678	0	0	-9.10517252	-7.23816815	12.20467818	21.48148757	89.99945425	0	0
19.26657143	-4.41100107	-4.09161132	-3.54240618	0.69235063	0.92032672	0.4888723	-11.19736026	2.21542232	-3.21330386	18.67299774	5.063	0.32590529	13.41743376	7.67154793	-20.18962038	33.87518428	-6.09372003	-8.94744308	13.16665945	5.063	0.22980156	11.3386084	-2.81771199	-2.65050534	-4.13618426	6.12071094	5.60872077	0	0	0	20.42434936	-19.49157921	1.76949109	57.00007153	89.99911678	0	0	-9.27382537	-7.42037694	12.48841618	21.31118243	89.99945425	0	0
19.27735714	-4.39660647	-3.49903633	-3.62098123	0.6950877	0.91827371	0.48827724	-11.52777277	1.39785052	-3.28338875	20.04332027	5.063	0.34982193	12.86625662	7.22813756	-21.12540732	34.05608677	-5.60050835	-9.10317213	15.33756586	5.063	0.26769102	10.41031895	-4.22095509	-2.81851474	-3.73799572	5.27236452	5.63022124	0	0	0	19.76113369	-19.34915626	1.7284866	56.98143454	89.99911678	0	0	-9.8075284	-7.78732848	12.47612054	21.5224368	89.99945425	0	0
19.28814286	-4.24553228	-2.56964149	-3.59244474	0.69771614	0.91660074	0.48675864	-11.61247071	0.05179426	-4.11861201	22.02421538	5.063	0.38439507	11.32431729	6.74104314	-25.92302291	33.6768123	-4.55862422	-9.04490765	16.65214377	5.063	0.29063474	8.24609507	-6.4803456	-4.55466929	-3.5575108	4.18660949	5.59918351	0	0	0	19.19208657	-19.04353351	1.02974571	56.82582993	89.99911678	0	0	-9.84785023	-8.09932144	13.11030729	21.25067103	89.99945425	0	0
19.29892857	-4.06616244	-1.86150345	-3.6089021	0.70041083	0.91505497	0.48554065	-11.58985293	-1.02967452	-4.65503032	24.29962024	5.063	0.42410838	10.14307259	6.27579185	-27.5050027	33.50537362	-3.86900815	-9.28786424	18.58785442	5.063	0.32441926	6.81877416	-7.80744765	-4.59677048	-3.39618225	3.29338271	5.54622353	0	0	0	18.55027796	-18.80486855	0.75147193	56.73956822	89.99911678	0	0	-10.16172903	-8.45234174	13.30884999	21.43652069	89.99945425	0	0
19.30971429	-3.84558923	-1.18147975	-3.50745601	0.70325985	0.91375248	0.48433716	-11.4355578	-2.03305661	-5.1342616	26.87526619	5.063	0.46906188	8.63936182	5.31118552	-28.28515999	33.26974405	-3.1620941	-9.46977402	20.50419076	5.063	0.35786564	5.58184313	-8.92023609	-4.37748341	-3.28673074	2.40455667	5.36983623	0	0	0	17.80252147	-18.58922697	0.55785953	56.58987105	89.99911678	0	0	-10.38159882	-8.87188976	13.35596734	21.72320725	89.99945425	0	0
19.3205	-3.52467924	-0.18743388	-3.5856004	0.70645853	0.9129648	0.48291936	-11.10511324	-3.47918075	-5.497754	29.87935469	5.063	0.52149312	6.83077012	4.22673168	-28.63321492	32.71756949	-2.1594407	-9.75854289	22.09340693	5.063	0.38560269	4.43309128	-10.2041518	-3.9462635	-3.2304882	1.17561347	5.37540266	0	0	0	16.99255678	-18.19325313	0.02822664	56.16394229	89.99911678	0	0	-10.62252273	-9.20850888	13.64189928	21.7855475	89.99945425	0	0
19.33128571	-3.14229344	0.44532869	-3.31717473	0.7090486	0.9123396	0.48131057	-10.68790727	-4.41660117	-5.91163265	33.05295623	5.063	0.57688291	4.29179007	2.22326127	-28.79840148	32.27092411	-1.37096308	-9.72458324	23.91074353	5.063	0.4173212	3.83219465	-10.97021577	-3.36377475	-3.37919067	0.35365608	5.05104346	0	0	0	16.18191946	-17.96932818	-0.13982191	55.92428993	89.99911678	0	0	-10.67415621	-9.5695238	13.66105106	22.03186304	89.99945425	0	0
19.34207143	-2.76408489	1.28653893	-3.28852253	0.71165278	0.91212868	0.47951021	-9.94328379	-5.68249885	-6.08125845	36.58195901	5.063	0.63847563	1.21451135	-0.21086397	-28.81196468	31.63391504	-0.404454	-9.80297824	25.42267883	5.063	0.44370945	3.66614535	-11.80725001	-2.30264282	-3.49325389	-0.64014707	4.84274348	0	0	0	15.42289207	-17.64545672	-0.45638052	55.44146211	89.99911678	0	0	-10.70809824	-9.82670503	13.76674339	22.12023377	89.99945425	0	0
19.35285714	-2.30064498	1.91774683	-2.9098706	0.71376434	0.91210878	0.47727101	-9.17646991	-6.69558167	-6.52842318	40.20078897	5.063	0.70163613	-2.42019793	-3.00711123	-28.62192604	30.96630124	0.54143726	-9.52636015	26.98870188	5.063	0.47104171	3.85330615	-12.34538851	-1.792257	-3.81582977	-1.37345377	4.44522563	0	0	0	14.55017139	-17.51640405	-0.54673794	55.06740219	89.99911678	0	0	-10.50321029	-10.12031392	13.72485535	22.36064206	89.99945425	0	0
19.36364286	-1.95086	2.89376637	-3.13324439	0.7157149	0.912544	0.4751166	-7.8564511	-8.22535749	-6.28875278	44.10648366	5.063	0.76980336	-6.33899668	-6.14680252	-28.07542424	30.07908947	1.66090621	-9.70338798	27.98518061	5.063	0.48843354	4.4699127	-12.9709919	-0.36998447	-3.94503679	-2.40246634	4.34455962	0	0	0	13.92294453	-17.15197214	-0.78538853	54.27255444	89.99911678	0	0	-10.3396625	-10.17849164	13.8285033	22.24345026	89.99945425	0	0
19.37442857	-1.44730524	3.37162224	-2.63684385	0.7174966	0.91312259	0.47216121	-6.90075001	-9.15598144	-6.73409431	47.71385498	5.063	0.83276387	-9.99866302	-8.7525286	-25.8889585	29.18081873	2.61222473	-9.20052766	29.2697464	5.063	0.51085345	5.36699064	-13.2193965	-0.33576537	-4.34117228	-2.86321431	3.83335166	0	0	0	12.86394832	-17.23249513	-0.80636931	53.828626	89.99911678	0	0	-9.98486583	-10.22327347	13.7615225	22.59750149	89.99945425	0	0
19.38521429	-1.19660003	4.40816408	-3.2685611	0.71796732	0.91402211	0.470355	-4.75869856	-10.83346864	-5.80430119	52.05857272	5.063	0.9085935	-12.49511211	-10.50355439	-20.47640557	28.14334865	3.69538533	-9.66467936	29.67397141	5.063	0.5179085	6.38296897	-13.65317033	1.12842201	-4.50216242	-3.93441133	4.11436447	0	0	0	12.57196346	-16.83101294	-0.83414946	52.62649986	89.99911678	0	0	-9.4106499	-10.34462334	13.80274407	22.38457385	89.99945425	0	0
19.396	-0.89120054	4.95631012	-3.42640365	0.71838845	0.91524987	0.46818406	-2.86434122	-11.81397277	-5.174029	55.90304939	5.063	0.97569227	-14.08334969	-11.75431928	-13.38558785	27.07589829	4.49835715	-9.63395792	30.17652189	5.063	0.52667966	7.49015123	-13.85804101	1.49816458	-4.7529994	-4.41960141	4.00441365	0	0	0	11.96064346	-16.69941487	-0.72551238	51.68070707	89.99911678	0	0	-8.80063044	-10.351455	13.81217721	22.42314365	89.99945425	0	0
19.40678571	-0.5629924	5.42536888	-3.67236482	0.71837045	0.91678949	0.46622236	-0.8821198	-12.63659128	-4.3461123	59.4880338	5.063	1.03826206	-14.88042714	-12.64223058	-6.6279769	25.85163567	5.20940692	-9.64405265	30.41475627	5.063	0.53083764	8.62572838	-13.96822314	1.78383939	-5.05960501	-4.82040627	3.92958283	0	0	0	11.3892307	-16.53824923	-0.52387301	50.60222455	89.99911678	0	0	-8.0697095	-10.29866593	13.82475203	22.44317157	89.99945425	0	0
19.41757143	-0.36549349	5.83263996	-4.06819532	0.71809365	0.91860958	0.46459841	1.32857642	-13.26716576	-3.25944119	62.73059465	5.063	1.09485542	-15.03948667	-13.35014681	-1.18934717	24.61436865	5.78113309	-9.84104275	30.36153319	5.063	0.52990872	9.72628199	-13.88099325	1.97460251	-5.17717014	-5.1507812	4.07644767	0	0	0	10.86928966	-16.44038089	-0.2055557	49.17278505	89.99911678	0	0	-7.25489439	-10.2410978	13.86753501	22.36005886	89.99945425	0	0
19.42835714	-0.21699455	6.02978649	-4.43213744	0.71740584	0.92062545	0.46334557	3.57424879	-13.4980051	-2.13533515	65.58347918	5.063	1.14464765	-14.78517118	-13.99996127	2.26779982	23.36733607	6.13640058	-9.95685538	30.18628765	5.063	0.52685011	10.73047488	-13.73436631	2.07098803	-5.28339286	-5.26136033	4.13956259	0	0	0	10.38867093	-16.27978371	0.15168249	47.76363545	89.99911678	0	0	-6.3980406	-10.21606766	13.88350095	22.43945411	89.99945425	0	0
19.43914286	-0.21042909	6.07901689	-4.84350308	0.71637708	0.92283994	0.46261693	5.98366083	-13.38247581	-0.93183884	68.08267859	5.063	1.18826691	-13.97761939	-14.4366919	4.41454535	22.16031491	6.27141944	-10.1795558	29.80660269	5.063	0.52022336	11.6772096	-13.40789843	2.12666851	-5.20975185	-5.23926368	4.26024766	0	0	0	9.92460289	-16.06908757	0.62419631	46.02839325	89.99911678	0	0	-5.52725407	-10.22742763	13.89879847	22.54436449	89.99945425	0	0
19.44992857	-0.09206375	5.56836331	-4.51603646	0.71633995	0.9257755	0.46118363	7.58409135	-12.72510997	-0.80389906	69.6925089	5.063	1.21636374	-13.05018114	-14.57725984	4.18473837	20.71933064	6.08374155	-9.64684651	29.48826833	5.063	0.51466737	12.66160229	-12.76796109	1.80244405	-5.24781647	-4.48203697	3.52556447	0	0	0	8.86102781	-15.92980601	0.70347825	45.86369174	89.99911678	0	0	-5.18989056	-10.28032169	13.78726113	23.17653056	89.99945425	0	0
19.46071429	0.01066535	5.2754817	-4.43948278	0.71373286	0.9283418	0.46128269	9.69245412	-11.93962192	-0.15182416	71.46048155	5.063	1.24722069	-11.56211752	-15.05039396	4.3916797	19.46230172	5.94630937	-9.32337566	29.06184518	5.063	0.50722489	13.20764117	-12.59734262	1.86964374	-5.61751867	-4.25558281	3.38604532	0	0	0	8.2564862	-15.62026215	0.93016206	44.89082276	89.99911678	0	0	-3.79313558	-10.58871859	13.62371147	23.88155203	89.99945425	0	0
19.4715	0.02774372	4.70706255	-4.18070533	0.71269414	0.93109193	0.46036401	11.48718354	-11.06699269	-0.01754435	72.55985928	5.063	1.26640845	-9.70030487	-14.74926747	3.82971507	18.15360987	5.57239944	-8.963101	28.64953574	5.063	0.50002873	13.9697479	-11.91358722	1.60264795	-5.65064565	-3.46719189	2.66160992	0	0	0	7.32534145	-15.50605137	0.99223292	44.74307188	89.99911678	0	0	-3.38130448	-10.6906112	13.49329734	24.59834111	89.99945425	0	0
